<svg xmlns="http://www.w3.org/2000/svg" enable-background="new 0 0 64 64" viewBox="0 0 64 64"><path fill="#34495c" d="M42.5 57.38c-.31 0-.61-.15-.8-.42-1.35-1.96-2.34-4.35-3.02-7.29-.12-.52.2-1.04.72-1.16.52-.12 1.04.2 1.16.72.63 2.7 1.52 4.87 2.73 6.63.3.44.19 1.05-.25 1.35C42.88 57.32 42.69 57.38 42.5 57.38zM21.67 57.38c-.19 0-.39-.06-.56-.18-.44-.31-.54-.91-.23-1.35 1.11-1.58 1.96-3.74 2.59-6.61.11-.52.63-.85 1.16-.74.52.11.85.63.74 1.16-.69 3.13-1.64 5.52-2.9 7.31C22.28 57.23 21.98 57.38 21.67 57.38z"/><path fill="#34495c" d="M44.33 60.66H19.67c-1.12 0-2-.78-2-1.77V57.2c0-.97.9-1.76 2-1.76h24.65c1.1 0 2 .79 2 1.76v1.68C46.32 59.88 45.45 60.66 44.33 60.66zM19.62 58.71c.02 0 .04 0 .06 0h24.65c.02 0 .04 0 .06 0v-1.33c-.02 0-.04 0-.06 0H19.67c-.02 0-.04 0-.06 0V58.71zM61.74 50.42H2.26C1.02 50.42 0 49.4 0 48.15V5.61c0-1.25 1.02-2.26 2.26-2.26h59.47c1.25 0 2.26 1.02 2.26 2.26v42.55C64 49.4 62.98 50.42 61.74 50.42zM2.26 5.28c-.18 0-.32.14-.32.32v42.55c0 .18.14.32.32.32h59.47c.18 0 .32-.14.32-.32V5.61c0-.18-.14-.32-.32-.32H2.26z"/><path fill="#34495c" d="M58.92,46.7H5.08c-0.74,0-1.34-0.6-1.34-1.34V8.4c0-0.74,0.6-1.34,1.34-1.34h53.84
				c0.74,0,1.34,0.6,1.34,1.34v36.96C60.26,46.1,59.66,46.7,58.92,46.7z M5.68,44.76h52.65V9H5.68V44.76z"/><path fill="#f6b64e" d="M18.85 25.82c-1.37 0-2.48-1.11-2.48-2.48s1.11-2.48 2.48-2.48c1.37 0 2.48 1.11 2.48 2.48S20.22 25.82 18.85 25.82zM18.85 22.8c-.3 0-.54.24-.54.54s.24.54.54.54.54-.24.54-.54S19.15 22.8 18.85 22.8zM18.85 31.57c-1.37 0-2.48-1.11-2.48-2.48 0-1.37 1.11-2.48 2.48-2.48 1.37 0 2.48 1.11 2.48 2.48C21.33 30.46 20.22 31.57 18.85 31.57zM18.85 28.55c-.3 0-.54.24-.54.54s.24.54.54.54.54-.24.54-.54S19.15 28.55 18.85 28.55zM18.85 37.31c-1.37 0-2.48-1.11-2.48-2.48 0-1.37 1.11-2.48 2.48-2.48 1.37 0 2.48 1.11 2.48 2.48C21.33 36.2 20.22 37.31 18.85 37.31zM18.85 34.29c-.3 0-.54.24-.54.54 0 .3.24.54.54.54s.54-.24.54-.54C19.39 34.54 19.15 34.29 18.85 34.29zM18.85 43.06c-1.37 0-2.48-1.11-2.48-2.48 0-1.37 1.11-2.48 2.48-2.48 1.37 0 2.48 1.11 2.48 2.48C21.33 41.95 20.22 43.06 18.85 43.06zM18.85 40.04c-.3 0-.54.24-.54.54 0 .3.24.54.54.54s.54-.24.54-.54C19.39 40.28 19.15 40.04 18.85 40.04zM26.86 20.46c-.25 0-.51-.1-.7-.3l-3.76-3.91c-.36-.38-.36-.97 0-1.34L26.16 11c.37-.39.99-.4 1.37-.03.39.37.4.99.03 1.37l-3.12 3.24 3.12 3.24c.37.39.36 1-.03 1.37C27.35 20.37 27.1 20.46 26.86 20.46zM40.31 20.46c-.24 0-.48-.09-.67-.27-.39-.37-.4-.99-.03-1.37l3.12-3.24-3.12-3.24c-.37-.39-.36-1 .03-1.37.38-.37 1-.36 1.37.03l3.76 3.91c.36.38.36.97 0 1.34l-3.76 3.91C40.82 20.36 40.56 20.46 40.31 20.46zM31.62 20.46c-.15 0-.29-.03-.43-.1-.48-.24-.67-.82-.43-1.3l3.93-7.82c.24-.48.82-.67 1.3-.43.48.24.67.82.43 1.3l-3.93 7.82C32.31 20.26 31.97 20.46 31.62 20.46zM30.37 24.31h-5.73c-.54 0-.97-.43-.97-.97s.43-.97.97-.97h5.73c.54 0 .97.43.97.97S30.91 24.31 30.37 24.31zM46.66 24.31H34.23c-.54 0-.97-.43-.97-.97s.43-.97.97-.97h12.43c.54 0 .97.43.97.97S47.19 24.31 46.66 24.31zM38.09 30.06H24.64c-.54 0-.97-.43-.97-.97 0-.54.43-.97.97-.97h13.45c.54 0 .97.43.97.97C39.06 29.62 38.63 30.06 38.09 30.06zM46.66 30.06h-4.61c-.54 0-.97-.43-.97-.97 0-.54.43-.97.97-.97h4.61c.54 0 .97.43.97.97C47.63 29.62 47.19 30.06 46.66 30.06zM30.37 35.8h-5.73c-.54 0-.97-.43-.97-.97s.43-.97.97-.97h5.73c.54 0 .97.43.97.97S30.91 35.8 30.37 35.8zM46.66 35.8H34.23c-.54 0-.97-.43-.97-.97s.43-.97.97-.97h12.43c.54 0 .97.43.97.97S47.19 35.8 46.66 35.8zM28.73 41.55h-4.09c-.54 0-.97-.43-.97-.97 0-.54.43-.97.97-.97h4.09c.54 0 .97.43.97.97C29.7 41.12 29.27 41.55 28.73 41.55zM37.64 41.55h-6.1c-.54 0-.97-.43-.97-.97 0-.54.43-.97.97-.97h6.1c.54 0 .97.43.97.97C38.61 41.12 38.17 41.55 37.64 41.55zM46.66 41.55h-6.34c-.54 0-.97-.43-.97-.97 0-.54.43-.97.97-.97h6.34c.54 0 .97.43.97.97C47.63 41.12 47.19 41.55 46.66 41.55z"/></svg>